<svg xmlns="http://www.w3.org/2000/svg" viewBox="0 0 160 160" role="img" aria-labelledby="title desc">
  <title id="title">Juan Dela Cruz profile placeholder</title>
  <desc id="desc">A stylized professional profile portrait used as a placeholder image.</desc>
  <defs>
    <linearGradient id="bg" x1="0%" y1="0%" x2="100%" y2="100%">
      <stop offset="0%" stop-color="#8f6a55"/>
      <stop offset="100%" stop-color="#4e352d"/>
    </linearGradient>
    <linearGradient id="coat" x1="0%" y1="0%" x2="100%" y2="100%">
      <stop offset="0%" stop-color="#2f3e4b"/>
      <stop offset="100%" stop-color="#18242d"/>
    </linearGradient>
    <linearGradient id="shirt" x1="0%" y1="0%" x2="0%" y2="100%">
      <stop offset="0%" stop-color="#f7efe4"/>
      <stop offset="100%" stop-color="#eadbc8"/>
    </linearGradient>
  </defs>

  <rect width="160" height="160" fill="url(#bg)"/>
  <circle cx="80" cy="58" r="36" fill="#e7c39b"/>
  <path d="M47 140c4-26 21-39 33-39s29 13 33 39z" fill="url(#coat)"/>
  <path d="M67 104h26l-13 18z" fill="url(#shirt)"/>
  <path d="M52 56c1-22 14-35 33-35 18 0 30 12 32 31-8-4-17-10-24-17-11 12-24 19-41 21z" fill="#2b1a17"/>
  <path d="M61 84c4 8 12 14 19 14s15-6 19-14c-3 13-11 22-19 22s-16-9-19-22z" fill="#d7af86" opacity=".5"/>
  <circle cx="67" cy="62" r="3" fill="#2b1a17"/>
  <circle cx="92" cy="62" r="3" fill="#2b1a17"/>
  <path d="M72 77c5 4 12 4 17 0" fill="none" stroke="#8b5f4a" stroke-linecap="round" stroke-width="3"/>
  <path d="M61 140c4-22 16-33 19-36 3 3 15 14 19 36z" fill="#f4e5d5" opacity=".18"/>
</svg>